<svg class="w-10 h-10" viewBox="0 0 132 132" fill="none" xmlns="http://www.w3.org/2000/svg">
    <path d="M3.06178 65.6064L65.6064 3.06178L128.151 65.6064L65.6064 128.151L3.06178 65.6064Z" stroke="#FF4C29" stroke-width="4.33002" data-darkreader-inline-stroke="" style="--darkreader-inline-stroke: #FF4C29;"></path>
    <path d="M3.06178 65.6064L65.6064 3.06178L128.151 65.6064L65.6064 128.151L3.06178 65.6064Z" stroke="#FF4C29" stroke-opacity="0.2" stroke-width="4.33002" data-darkreader-inline-stroke="" style="--darkreader-inline-stroke: #FF4C29;"></path>
    <path d="M3.06178 65.6064L65.6064 3.06178L128.151 65.6064L65.6064 128.151L3.06178 65.6064Z" stroke="#FF4C29" stroke-width="4.33002" data-darkreader-inline-stroke="" style="--darkreader-inline-stroke: #FF4C29;"></path>
    <path d="M3.06178 65.6064L65.6064 3.06178L128.151 65.6064L65.6064 128.151L3.06178 65.6064Z" stroke="#FF4C29" stroke-opacity="0.2" stroke-width="4.33002" data-darkreader-inline-stroke="" style="--darkreader-inline-stroke: #FF4C29;"></path>
    <path d="M32.6064 33L51.6323 52.0258V79.1869L32.8689 97.8847" stroke="#FF4C29" stroke-width="4.33002" data-darkreader-inline-stroke="" style="--darkreader-inline-stroke: #FF4C29;"></path>
    <path d="M32.6064 33L51.6323 52.0258V79.1869L32.8689 97.8847" stroke="#FF4C29" stroke-opacity="0.2" stroke-width="4.33002" data-darkreader-inline-stroke="" style="--darkreader-inline-stroke: #FF4C29;"></path>
    <path d="M98.541 98.0161L79.6464 79.1871L79.6464 52.0261L98.541 33.0002" stroke="#FF4C29" stroke-width="4.33002" data-darkreader-inline-stroke="" style="--darkreader-inline-stroke: #FF4C29;"></path>
    <path d="M98.541 98.0161L79.6464 79.1871L79.6464 52.0261L98.541 33.0002" stroke="#FF4C29" stroke-opacity="0.2" stroke-width="4.33002" data-darkreader-inline-stroke="" style="--darkreader-inline-stroke: #FF4C29;"></path>
    <path d="M19.6162 49.1294L36.2146 65.6717L19.6162 82.2141" stroke="#FF4C29" stroke-width="4.33002" data-darkreader-inline-stroke="" style="--darkreader-inline-stroke: #FF4C29;"></path>
    <path d="M19.6162 49.1294L36.2146 65.6717L19.6162 82.2141" stroke="#FF4C29" stroke-opacity="0.2" stroke-width="4.33002" data-darkreader-inline-stroke="" style="--darkreader-inline-stroke: #FF4C29;"></path>
    <path d="M111.137 49.3255L94.8668 65.5409L111.137 81.7563" stroke="#FF4C29" stroke-width="4.33002" data-darkreader-inline-stroke="" style="--darkreader-inline-stroke: #FF4C29;"></path>
    <path d="M111.137 49.3255L94.8668 65.5409L111.137 81.7563" stroke="#FF4C29" stroke-opacity="0.2" stroke-width="4.33002" data-darkreader-inline-stroke="" style="--darkreader-inline-stroke: #FF4C29;"></path>
    <path d="M11.9404 59.6035L17.9434 65.6065L11.9404 71.6095" stroke="#FF4C29" stroke-width="4.33002" data-darkreader-inline-stroke="" style="--darkreader-inline-stroke: #FF4C29;"></path>
    <path d="M11.9404 59.6035L17.9434 65.6065L11.9404 71.6095" stroke="#FF4C29" stroke-opacity="0.2" stroke-width="4.33002" data-darkreader-inline-stroke="" style="--darkreader-inline-stroke: #FF4C29;"></path>
    <path d="M119.24 59.6034L113.237 65.6064L119.24 71.6094" stroke="#FF4C29" stroke-width="4.33002" data-darkreader-inline-stroke="" style="--darkreader-inline-stroke: #FF4C29;"></path>
    <path d="M119.24 59.6034L113.237 65.6064L119.24 71.6094" stroke="#FF4C29" stroke-opacity="0.2" stroke-width="4.33002" data-darkreader-inline-stroke="" style="--darkreader-inline-stroke: #FF4C29;"></path>
    <path d="M53.7979 119.141L65.607 107.332L77.4161 119.141" stroke="#FF4C29" stroke-width="4.33002" data-darkreader-inline-stroke="" style="--darkreader-inline-stroke: #FF4C29;"></path>
    <path d="M53.7979 119.141L65.607 107.332L77.4161 119.141" stroke="#FF4C29" stroke-opacity="0.2" stroke-width="4.33002" data-darkreader-inline-stroke="" style="--darkreader-inline-stroke: #FF4C29;"></path>
    <path d="M77.416 12.0717L65.6069 23.8809L53.7977 12.0717" stroke="#FF4C29" stroke-width="4.33002" data-darkreader-inline-stroke="" style="--darkreader-inline-stroke: #FF4C29;"></path>
    <path d="M77.416 12.0717L65.6069 23.8809L53.7977 12.0717" stroke="#FF4C29" stroke-opacity="0.2" stroke-width="4.33002" data-darkreader-inline-stroke="" style="--darkreader-inline-stroke: #FF4C29;"></path>
    <path d="M46.1875 108.907L65.607 89.4871V41.7256L46.1875 22.3062" stroke="#FF4C29" stroke-width="4.33002" data-darkreader-inline-stroke="" style="--darkreader-inline-stroke: #FF4C29;"></path>
    <path d="M46.1875 108.907L65.607 89.4871V41.7256L46.1875 22.3062" stroke="#FF4C29" stroke-opacity="0.2" stroke-width="4.33002" data-darkreader-inline-stroke="" style="--darkreader-inline-stroke: #FF4C29;"></path>
    <path d="M85.0264 22.3063L65.6069 41.7258L65.6069 89.4873L85.0264 108.907" stroke="#FF4C29" stroke-width="4.33002" data-darkreader-inline-stroke="" style="--darkreader-inline-stroke: #FF4C29;"></path>
    <path d="M85.0264 22.3063L65.6069 41.7258L65.6069 89.4873L85.0264 108.907" stroke="#FF4C29" stroke-opacity="0.2" stroke-width="4.33002" data-darkreader-inline-stroke="" style="--darkreader-inline-stroke: #FF4C29;"></path>
</svg>

